# xmcd
#
# Track frame offsets: 
#        150
#        14714
#        29543
#        43924
#        57881
#        74605
#        88611
#        106265
#        123410
#        143260
#        161335
#        176606
#        192055
#
# Disc length: 2785 seconds
#
# Revision: 0
# Processed by: cddbd v1.5.2PL0 Copyright (c) Steve Scherf et al.
# Submitted via: ExactAudioCopy v1.0b3
#
DISCID=ae0adf0d
DTITLE=Sonny O'brian - Friday night forever
DYEAR=2004
DGENRE=Country
TTITLE0=Friday night forever
TTITLE1=Call me
TTITLE2=I don't wanna be a star
TTITLE3=All out of love
TTITLE4=Could this be the moment
TTITLE5=Don't stop
TTITLE6=Downtown baby
TTITLE7=Here I am
TTITLE8=Night after day
TTITLE9=Road to your heart
TTITLE10=Superwoman
TTITLE11=Nothing's gonna stop me now
TTITLE12=Do me right
EXTD=
EXTT0=
EXTT1=
EXTT2=
EXTT3=
EXTT4=
EXTT5=
EXTT6=
EXTT7=
EXTT8=
EXTT9=
EXTT10=
EXTT11=
EXTT12=
PLAYORDER=
